#!OML:ASF H:\IndianDance\Patient Classification 1\Patient 1\Session 1\dancer.ASF
:FULLY-SPECIFIED
:DEGREES
2357
root -13.1125 15.6792 3.15888 -156.847 58.3013 -171.36
lowerback 5.35831 4.28324 -2.47996
upperback 3.7694 5.77767 -2.61307
thorax 0.922956 2.94466 -1.55772
lowerneck -14.9815 -1.19588 0.382164
upperneck 41.0582 -1.25535 7.14182
head 17.8232 1.52929 3.33447
rclavicle -4.53229e-014 -1.43125e-014
rhumerus -35.6197 -6.23543 -86.3662
rradius 46.4444
rwrist -4.494
rhand -20.1187 8.01825
rfingers 7.12502
rthumb 6.22523 -21.8703
lclavicle -4.53229e-014 -1.43125e-014
lhumerus -32.1861 -1.72694 82.337
lradius 35.8263
lwrist 5.97657
lhand -26.0707 -1071.28
lfingers 7.12502
lthumb 0.477479 38.698
rfemur -33.7822 2.8858 27.7176
rtibia 32.9103
rfoot -11.8735 -5.65399
rtoes 3.05464
lfemur -31.5657 -3.04846 -15.3719
ltibia 32.318
lfoot -11.97 3.20123
ltoes 6.15226
2358
root -13.0892 15.6795 3.15543 -156.902 58.3179 -171.499
lowerback 5.34942 4.28045 -2.47082
upperback 3.77092 5.77463 -2.61494
thorax 0.930482 2.94323 -1.56365
lowerneck -14.9709 -1.20659 0.357688
upperneck 41.0693 -1.25902 7.13905
head 17.8271 1.52401 3.3377
rclavicle 4.29375e-014 -4.29375e-014
rhumerus -35.5997 -6.16062 -86.4049
rradius 46.5875
rwrist -4.55075
rhand -20.1391 8.00519
rfingers 7.12502
rthumb 6.20556 -21.8839
lclavicle 4.29375e-014 -4.29375e-014
lhumerus -32.1519 -1.69808 82.3157
lradius 35.7328
lwrist 5.9252
lhand -26.1228 -1071.2
lfingers 7.12502
lthumb 0.427129 38.7833
rfemur -33.8032 2.88929 27.675
rtibia 32.9895
rfoot -11.9209 -5.69965
rtoes 3.08068
lfemur -31.5097 -3.01637 -15.4235
ltibia 32.2593
lfoot -12.0328 3.15229
ltoes 6.02816
2359
root -13.0659 15.6798 3.15222 -156.948 58.3358 -171.633
lowerback 5.33457 4.27821 -2.46653
upperback 3.76855 5.77197 -2.61615
thorax 0.936745 2.94177 -1.56595
lowerneck -14.9608 -1.21721 0.339627
upperneck 41.0789 -1.26411 7.13347
head 17.8302 1.5187 3.33804
rclavicle -3.65764e-014 1.98785e-014
rhumerus -35.5799 -6.08467 -86.4448
rradius 46.7059
rwrist -4.60231
rhand -20.1464 7.991
rfingers 7.12502
rthumb 6.19848 -21.8983
lclavicle -3.65764e-014 1.98785e-014
lhumerus -32.1196 -1.68204 82.2988
lradius 35.6543
lwrist 5.88238
lhand -26.1759 -1071.11
lfingers 7.12502
lthumb 0.375818 38.865
rfemur -33.833 2.88955 27.6362
rtibia 33.0714
rfoot -11.9715 -5.74831
rtoes 3.06197
lfemur -31.46 -2.97387 -15.4734
ltibia 32.2011
lfoot -12.0961 3.09526
ltoes 5.87729
2360
root -13.0427 15.68 3.1492 -156.986 58.3562 -171.764
lowerback 5.31456 4.27629 -2.46576
upperback 3.76195 5.76945 -2.61911
thorax 0.941347 2.94027 -1.5679
lowerneck -14.9513 -1.22684 0.331231
upperneck 41.0853 -1.27082 7.12556
head 17.8317 1.5138 3.33495
rclavicle 5.1684e-015 -1.74931e-014
rhumerus -35.5614 -6.01095 -86.4878
rradius 46.7997
rwrist -4.64486
rhand -20.1423 7.97723
rfingers 7.12502
rthumb 6.20246 -21.912
lclavicle 5.1684e-015 -1.74931e-014
lhumerus -32.0874 -1.67179 82.2834
lradius 35.5879
lwrist 5.84039
lhand -26.2278 -1071.04
lfingers 7.12502
lthumb 0.325751 38.943
rfemur -33.8712 2.88517 27.6009
rtibia 33.1557
rfoot -12.0245 -5.79368
rtoes 3.03277
lfemur -31.4166 -2.92173 -15.523
ltibia 32.1442
lfoot -12.1601 3.03288
ltoes 5.68513
2361
root -13.0193 15.6801 3.14636 -157.019 58.3796 -171.894
lowerback 5.28922 4.27392 -2.47194
upperback 3.75284 5.76606 -2.62281
thorax 0.945712 2.93815 -1.56644
lowerneck -14.9434 -1.23384 0.333504
upperneck 41.0892 -1.27579 7.11219
head 17.8319 1.51033 3.32742
rclavicle -1.23644e-013 5.00937e-014
rhumerus -35.5411 -5.93663 -86.5335
rradius 46.8661
rwrist -4.67721
rhand -20.1288 7.96649
rfingers 7.12502
rthumb 6.21549 -21.9223
lclavicle -1.23644e-013 5.00937e-014
lhumerus -32.056 -1.66717 82.2698
lradius 35.5364
lwrist 5.8005
lhand -26.2753 -1070.96
lfingers 7.12502
lthumb 0.279838 39.0221
rfemur -33.9143 2.87904 27.5673
rtibia 33.242
rfoot -12.0811 -5.83542
rtoes 3.00377
lfemur -31.3762 -2.86389 -15.5728
ltibia 32.0886
lfoot -12.2249 2.9703
ltoes 5.47376
2362
root -12.996 15.6802 3.14375 -157.046 58.4059 -172.017
lowerback 5.26052 4.2726 -2.48272
upperback 3.74172 5.76379 -2.62528
thorax 0.949303 2.93642 -1.56108
lowerneck -14.9359 -1.24037 0.33961
upperneck 41.0882 -1.28307 7.10034
head 17.8295 1.50651 3.31905
rclavicle -9.54166e-015 2.70347e-014
rhumerus -35.5212 -5.86614 -86.5784
rradius 46.906
rwrist -4.6954
rhand -20.1094 7.96634
rfingers 7.12502
rthumb 6.23423 -21.9219
lclavicle -9.54166e-015 2.70347e-014
lhumerus -32.0317 -1.68251 82.2618
lradius 35.5087
lwrist 5.77441
lhand -26.3143 -1070.89
lfingers 7.12502
lthumb 0.242209 39.091
rfemur -33.9599 2.87355 27.5379
rtibia 33.3299
rfoot -12.1424 -5.86915
rtoes 3.00593
lfemur -31.3372 -2.80136 -15.6196
ltibia 32.0344
lfoot -12.2908 2.91063
ltoes 5.24839
2363
root -12.9726 15.6801 3.14128 -157.064 58.435 -172.131
lowerback 5.22755 4.27172 -2.49555
upperback 3.73071 5.76212 -2.62539
thorax 0.954928 2.93486 -1.55183
lowerneck -14.9298 -1.24516 0.346378
upperneck 41.0811 -1.29031 7.09078
head 17.824 1.50274 3.31109
rclavicle 1.28415e-013 -5.56597e-015
rhumerus -35.4987 -5.79452 -86.6213
rradius 46.9222
rwrist -4.70545
rhand -20.0855 7.9702
rfingers 7.12502
rthumb 6.25728 -21.9174
lclavicle 1.28415e-013 -5.56597e-015
lhumerus -32.0114 -1.71683 82.2617
lradius 35.5054
lwrist 5.76372
lhand -26.3485 -1070.83
lfingers 7.12502
lthumb 0.209162 39.1541
rfemur -34.0056 2.86959 27.5136
rtibia 33.4181
rfoot -12.2097 -5.8932
rtoes 3.03184
lfemur -31.2988 -2.7413 -15.6602
ltibia 31.982
lfoot -12.3576 2.86048
ltoes 5.03908
2364
root -12.9492 15.68 3.13889 -157.084 58.4668 -172.241
lowerback 5.1967 4.27132 -2.50827
upperback 3.71954 5.76102 -2.62574
thorax 0.959275 2.93361 -1.54312
lowerneck -14.9251 -1.24859 0.353882
upperneck 41.0706 -1.29807 7.08516
head 17.8169 1.49926 3.30449
rclavicle 3.57812e-014 1.43125e-014
rhumerus -35.476 -5.72266 -86.6635
rradius 46.9152
rwrist -4.70684
rhand -20.0523 7.97573
rfingers 7.12502
rthumb 6.2893 -21.9109
lclavicle 3.57812e-014 1.43125e-014
lhumerus -31.9968 -1.7701 82.2666
lradius 35.5249
lwrist 5.76445
lhand -26.3712 -1070.78
lfingers 7.12502
lthumb 0.187233 39.2018
rfemur -34.0465 2.86273 27.4915
rtibia 33.5049
rfoot -12.2832 -5.9042
rtoes 3.09917
lfemur -31.2575 -2.68646 -15.6987
ltibia 31.9328
lfoot -12.4259 2.82085
ltoes 4.85464
2365
root -12.9259 15.6798 3.13654 -157.1 58.4987 -172.341
lowerback 5.16953 4.26969 -2.51542
upperback 3.7085 5.75834 -2.62545
thorax 0.962142 2.93169 -1.53703
lowerneck -14.9206 -1.25029 0.362142
upperneck 41.0556 -1.30553 7.08227
head 17.8073 1.49613 3.29868
rclavicle 3.65764e-014 -1.66979e-014
rhumerus -35.4514 -5.65082 -86.7064
rradius 46.8836
rwrist -4.69135
rhand -20.002 7.98481
rfingers 7.12502
rthumb 6.3379 -21.9004
lclavicle 3.65764e-014 -1.66979e-014
lhumerus -31.9957 -1.8463 82.2737
lradius 35.5767
lwrist 5.7762
lhand -26.3798 -1070.74
lfingers 7.12502
lthumb 0.178926 39.2411
rfemur -34.0802 2.85241 27.4759
rtibia 33.5888
rfoot -12.3613 -5.90159
rtoes 3.17562
lfemur -31.2133 -2.63961 -15.7303
ltibia 31.888
lfoot -12.4947 2.79528
ltoes 4.69485
